<mxfile host="app.diagrams.net" agent="Mozilla/5.0 (Windows NT 10.0; Win64; x64) AppleWebKit/537.36 (KHTML, like Gecko) Chrome/133.0.0.0 Safari/537.36" version="26.0.16">
  <diagram name="Seite-1" id="X0zhRKxFFVTD7P8UlWpB">
    <mxGraphModel dx="561" dy="629" grid="0" gridSize="10" guides="1" tooltips="1" connect="1" arrows="1" fold="1" page="0" pageScale="1" pageWidth="827" pageHeight="1169" math="0" shadow="0">
      <root>
        <mxCell id="0" />
        <mxCell id="1" parent="0" />
        <mxCell id="IQCu-P5Pp9QnxodTstl--2" value="" style="ellipse;whiteSpace=wrap;html=1;aspect=fixed;" vertex="1" parent="1">
          <mxGeometry x="-65" y="32" width="37" height="37" as="geometry" />
        </mxCell>
        <mxCell id="IQCu-P5Pp9QnxodTstl--3" value="" style="line;strokeWidth=2;direction=south;html=1;" vertex="1" parent="1">
          <mxGeometry x="-51.5" y="37.5" width="10" height="26" as="geometry" />
        </mxCell>
        <mxCell id="IQCu-P5Pp9QnxodTstl--4" value="" style="line;strokeWidth=2;direction=south;html=1;rotation=90;" vertex="1" parent="1">
          <mxGeometry x="-51.5" y="37.5" width="10" height="26" as="geometry" />
        </mxCell>
        <mxCell id="IQCu-P5Pp9QnxodTstl--7" value="" style="rounded=0;whiteSpace=wrap;html=1;" vertex="1" parent="1">
          <mxGeometry x="11" y="15" width="94" height="71" as="geometry" />
        </mxCell>
        <mxCell id="IQCu-P5Pp9QnxodTstl--14" value="" style="shape=image;verticalLabelPosition=bottom;labelBackgroundColor=default;verticalAlign=top;aspect=fixed;imageAspect=0;editableCssRules=.*;image=data:image/svg+xml,PHN2ZyB4bWxucz0iaHR0cDovL3d3dy53My5vcmcvMjAwMC9zdmciIHhtbG5zOnhsaW5rPSJodHRwOi8vd3d3LnczLm9yZy8xOTk5L3hsaW5rIiB2ZXJzaW9uPSIxLjEiIHZpZXdCb3g9IjAgMCA5OC4wOTk5OTg0NzQxMjExIDU4Ljc1MTk5ODkwMTM2NzE5IiBoZWlnaHQ9IjU4Ljc1MTk5ODkwMTM2NzE5IiB3aWR0aD0iOTguMDk5OTk4NDc0MTIxMSI+JiN4YTsgPG1ldGFkYXRhPiYjeGE7ICAmI3hhOyAgICYjeGE7ICAgICYjeGE7ICAgIDIwMjUtMDMtMDFUMTI6MTE6MTEuNjM2ODI4JiN4YTsgICAgaW1hZ2Uvc3ZnK3htbCYjeGE7ICAgICYjeGE7ICAgICAmI3hhOyAgICAgIE1hdHBsb3RsaWIgdjMuNi4zLCBodHRwczovL21hdHBsb3RsaWIub3JnLyYjeGE7ICAgICAmI3hhOyAgICAmI3hhOyAgICYjeGE7ICAmI3hhOyA8L21ldGFkYXRhPiYjeGE7IDxkZWZzPiYjeGE7ICA8c3R5bGUgdHlwZT0idGV4dC9jc3MiPip7c3Ryb2tlLWxpbmVqb2luOiByb3VuZDsgc3Ryb2tlLWxpbmVjYXA6IGJ1dHR9PC9zdHlsZT4mI3hhOyA8L2RlZnM+JiN4YTsgPGcgaWQ9ImZpZ3VyZV8xIj4mI3hhOyAgPGcgaWQ9InBhdGNoXzEiPiYjeGE7ICAgPHBhdGggc3R5bGU9ImZpbGw6IG5vbmUiIGQ9Ik0gMCA1OC43NTIgJiMxMDtMIDk4LjEgNTguNzUyICYjMTA7TCA5OC4xIDAgJiMxMDtMIDAgMCAmIzEwO0wgMCA1OC43NTIgJiMxMDt6Ii8+JiN4YTsgIDwvZz4mI3hhOyAgPGcgaWQ9ImF4ZXNfMSI+JiN4YTsgICA8ZyBpZD0idGV4dF8xIj4mI3hhOyAgICAmI3hhOyAgICA8ZyB0cmFuc2Zvcm09InRyYW5zbGF0ZSgyOC40NSAzNC44OTQ3NSkgc2NhbGUoMC4yIC0wLjIpIiBzdHlsZT0iZmlsbDogIzMzMzMzMyI+JiN4YTsgICAgIDxkZWZzPiYjeGE7ICAgICAgPHBhdGggdHJhbnNmb3JtPSJzY2FsZSgwLjAxNTYyNSkiIGQ9Ik0gMTA4MSA0NjY2ICYjMTA7TCAxNzE2IDQ2NjYgJiMxMDtMIDEzNDQgMjc1MyAmIzEwO0wgMzYzNCAyNzUzICYjMTA7TCA0MDA2IDQ2NjYgJiMxMDtMIDQ2NDEgNDY2NiAmIzEwO0wgMzczMSAwICYjMTA7TCAzMDk3IDAgJiMxMDtMIDM1MzEgMjIyMiAmIzEwO0wgMTI0MSAyMjIyICYjMTA7TCA4MDYgMCAmIzEwO0wgMTcyIDAgJiMxMDtMIDEwODEgNDY2NiAmIzEwO3oiIGlkPSJEZWphVnVTYW5zLU9ibGlxdWUtNDgiLz4mI3hhOyAgICAgIDxwYXRoIHRyYW5zZm9ybT0ic2NhbGUoMC4wMTU2MjUpIiBkPSJNIDE5ODQgNDg1NiAmIzEwO1EgMTU2NiA0MTM4IDEzNjIgMzQzNCAmIzEwO1EgMTE1OSAyNzMxIDExNTkgMjAwOSAmIzEwO1EgMTE1OSAxMjg4IDEzNjQgNTgwICYjMTA7USAxNTY5IC0xMjggMTk4NCAtODQ0ICYjMTA7TCAxNDg0IC04NDQgJiMxMDtRIDEwMTYgLTEwOSA3ODMgNjAwICYjMTA7USA1NTAgMTMwOSA1NTAgMjAwOSAmIzEwO1EgNTUwIDI3MDYgNzgxIDM0MTIgJiMxMDtRIDEwMTMgNDExOSAxNDg0IDQ4NTYgJiMxMDtMIDE5ODQgNDg1NiAmIzEwO3oiIGlkPSJEZWphVnVTYW5zLTI4Ii8+JiN4YTsgICAgICA8cGF0aCB0cmFuc2Zvcm09InNjYWxlKDAuMDE1NjI1KSIgZD0iTSA3NDQgMzUwMCAmIzEwO0wgMzQ3NSAzNTAwICYjMTA7TCAzMzcyIDI5NzUgJiMxMDtMIDczOCA0NTkgJiMxMDtMIDI5MTMgNDU5ICYjMTA7TCAyODIyIDAgJiMxMDtMIC0xOSAwICYjMTA7TCA4NCA1MjUgJiMxMDtMIDI3MTkgMzA0MSAmIzEwO0wgNjUzIDMwNDEgJiMxMDtMIDc0NCAzNTAwICYjMTA7eiIgaWQ9IkRlamFWdVNhbnMtT2JsaXF1ZS03YSIvPiYjeGE7ICAgICAgPHBhdGggdHJhbnNmb3JtPSJzY2FsZSgwLjAxNTYyNSkiIGQ9Ik0gNTEzIDQ4NTYgJiMxMDtMIDEwMTMgNDg1NiAmIzEwO1EgMTQ4MSA0MTE5IDE3MTQgMzQxMiAmIzEwO1EgMTk0NyAyNzA2IDE5NDcgMjAwOSAmIzEwO1EgMTk0NyAxMzA5IDE3MTQgNjAwICYjMTA7USAxNDgxIC0xMDkgMTAxMyAtODQ0ICYjMTA7TCA1MTMgLTg0NCAmIzEwO1EgOTI4IC0xMjggMTEzMyA1ODAgJiMxMDtRIDEzMzggMTI4OCAxMzM4IDIwMDkgJiMxMDtRIDEzMzggMjczMSAxMTMzIDM0MzQgJiMxMDtRIDkyOCA0MTM4IDUxMyA0ODU2ICYjMTA7eiIgaWQ9IkRlamFWdVNhbnMtMjkiLz4mI3hhOyAgICAgPC9kZWZzPiYjeGE7ICAgICA8dXNlIHRyYW5zZm9ybT0idHJhbnNsYXRlKDAgMC4xMjUpIiB4bGluazpocmVmPSIjRGVqYVZ1U2Fucy1PYmxpcXVlLTQ4Ii8+JiN4YTsgICAgIDx1c2UgdHJhbnNmb3JtPSJ0cmFuc2xhdGUoNzUuMTk1MzEyIDAuMTI1KSIgeGxpbms6aHJlZj0iI0RlamFWdVNhbnMtMjgiLz4mI3hhOyAgICAgPHVzZSB0cmFuc2Zvcm09InRyYW5zbGF0ZSgxMTQuMjA4OTg0IDAuMTI1KSIgeGxpbms6aHJlZj0iI0RlamFWdVNhbnMtT2JsaXF1ZS03YSIvPiYjeGE7ICAgICA8dXNlIHRyYW5zZm9ybT0idHJhbnNsYXRlKDE2Ni42OTkyMTkgMC4xMjUpIiB4bGluazpocmVmPSIjRGVqYVZ1U2Fucy0yOSIvPiYjeGE7ICAgIDwvZz4mI3hhOyAgIDwvZz4mI3hhOyAgPC9nPiYjeGE7IDwvZz4mI3hhOzwvc3ZnPg==;" vertex="1" parent="1">
          <mxGeometry x="9" y="21" width="98" height="59" as="geometry" />
        </mxCell>
        <mxCell id="IQCu-P5Pp9QnxodTstl--15" value="" style="endArrow=classic;html=1;rounded=0;fontSize=12;startSize=8;endSize=8;curved=1;entryX=0;entryY=0.5;entryDx=0;entryDy=0;" edge="1" parent="1">
          <mxGeometry width="50" height="50" relative="1" as="geometry">
            <mxPoint x="-104" y="50.25" as="sourcePoint" />
            <mxPoint x="-64.99999999999972" y="50.75" as="targetPoint" />
          </mxGeometry>
        </mxCell>
        <mxCell id="IQCu-P5Pp9QnxodTstl--16" value="" style="endArrow=classic;html=1;rounded=0;fontSize=12;startSize=8;endSize=8;curved=1;entryX=0;entryY=0.5;entryDx=0;entryDy=0;" edge="1" parent="1">
          <mxGeometry width="50" height="50" relative="1" as="geometry">
            <mxPoint x="-28" y="50.25" as="sourcePoint" />
            <mxPoint x="11.000000000000284" y="50.75" as="targetPoint" />
          </mxGeometry>
        </mxCell>
        <mxCell id="IQCu-P5Pp9QnxodTstl--17" value="" style="rounded=0;whiteSpace=wrap;html=1;" vertex="1" parent="1">
          <mxGeometry x="154" y="15" width="94" height="71" as="geometry" />
        </mxCell>
        <mxCell id="IQCu-P5Pp9QnxodTstl--19" value="" style="endArrow=classic;html=1;rounded=0;fontSize=12;startSize=8;endSize=8;curved=1;" edge="1" parent="1">
          <mxGeometry width="50" height="50" relative="1" as="geometry">
            <mxPoint x="105" y="50.25" as="sourcePoint" />
            <mxPoint x="153" y="51" as="targetPoint" />
          </mxGeometry>
        </mxCell>
        <mxCell id="IQCu-P5Pp9QnxodTstl--26" value="" style="endArrow=none;html=1;rounded=0;fontSize=12;startSize=8;endSize=8;curved=1;" edge="1" parent="1">
          <mxGeometry width="50" height="50" relative="1" as="geometry">
            <mxPoint x="200.95" y="77.5" as="sourcePoint" />
            <mxPoint x="200.95" y="23.5" as="targetPoint" />
          </mxGeometry>
        </mxCell>
        <mxCell id="IQCu-P5Pp9QnxodTstl--28" value="" style="endArrow=none;html=1;rounded=0;fontSize=12;startSize=8;endSize=8;curved=1;" edge="1" parent="1">
          <mxGeometry width="50" height="50" relative="1" as="geometry">
            <mxPoint x="201" y="24" as="sourcePoint" />
            <mxPoint x="232" y="24" as="targetPoint" />
          </mxGeometry>
        </mxCell>
        <mxCell id="IQCu-P5Pp9QnxodTstl--30" value="" style="endArrow=none;html=1;rounded=0;fontSize=12;startSize=8;endSize=8;curved=1;" edge="1" parent="1">
          <mxGeometry width="50" height="50" relative="1" as="geometry">
            <mxPoint x="170" y="77" as="sourcePoint" />
            <mxPoint x="201" y="77" as="targetPoint" />
          </mxGeometry>
        </mxCell>
        <mxCell id="IQCu-P5Pp9QnxodTstl--31" value="" style="endArrow=none;html=1;rounded=0;fontSize=12;startSize=8;endSize=8;curved=1;" edge="1" parent="1">
          <mxGeometry width="50" height="50" relative="1" as="geometry">
            <mxPoint x="185.5" y="50.45" as="sourcePoint" />
            <mxPoint x="216.5" y="50.45" as="targetPoint" />
          </mxGeometry>
        </mxCell>
        <mxCell id="IQCu-P5Pp9QnxodTstl--33" value="" style="edgeStyle=elbowEdgeStyle;elbow=vertical;endArrow=classic;html=1;curved=0;rounded=0;endSize=8;startSize=8;fontSize=12;entryX=0.5;entryY=1;entryDx=0;entryDy=0;" edge="1" parent="1" target="IQCu-P5Pp9QnxodTstl--2">
          <mxGeometry width="50" height="50" relative="1" as="geometry">
            <mxPoint x="269" y="51" as="sourcePoint" />
            <mxPoint x="-36.5" y="69" as="targetPoint" />
            <Array as="points">
              <mxPoint x="116" y="119" />
            </Array>
          </mxGeometry>
        </mxCell>
        <mxCell id="IQCu-P5Pp9QnxodTstl--34" value="" style="endArrow=classic;html=1;rounded=0;fontSize=12;startSize=8;endSize=8;curved=1;exitX=1.009;exitY=0.502;exitDx=0;exitDy=0;exitPerimeter=0;" edge="1" parent="1" source="IQCu-P5Pp9QnxodTstl--17">
          <mxGeometry width="50" height="50" relative="1" as="geometry">
            <mxPoint x="254" y="67" as="sourcePoint" />
            <mxPoint x="297" y="51" as="targetPoint" />
          </mxGeometry>
        </mxCell>
        <mxCell id="IQCu-P5Pp9QnxodTstl--35" value="" style="endArrow=none;html=1;rounded=0;fontSize=12;startSize=8;endSize=8;curved=1;" edge="1" parent="1">
          <mxGeometry width="50" height="50" relative="1" as="geometry">
            <mxPoint x="-39" y="75" as="sourcePoint" />
            <mxPoint x="-31" y="75" as="targetPoint" />
          </mxGeometry>
        </mxCell>
        <mxCell id="IQCu-P5Pp9QnxodTstl--36" value="" style="shape=image;verticalLabelPosition=bottom;labelBackgroundColor=default;verticalAlign=top;aspect=fixed;imageAspect=0;editableCssRules=.*;image=data:image/svg+xml,PHN2ZyB4bWxucz0iaHR0cDovL3d3dy53My5vcmcvMjAwMC9zdmciIHhtbG5zOnhsaW5rPSJodHRwOi8vd3d3LnczLm9yZy8xOTk5L3hsaW5rIiB2ZXJzaW9uPSIxLjEiIHZpZXdCb3g9IjAgMCA5OC4wOTk5OTg0NzQxMjExIDk3LjU1OTk5NzU1ODU5Mzc1IiBoZWlnaHQ9Ijk3LjU1OTk5NzU1ODU5Mzc1IiB3aWR0aD0iOTguMDk5OTk4NDc0MTIxMSI+JiN4YTsgPG1ldGFkYXRhPiYjeGE7ICAmI3hhOyAgICYjeGE7ICAgICYjeGE7ICAgIDIwMjUtMDMtMDFUMTQ6NTY6MzQuODYzMjk1JiN4YTsgICAgaW1hZ2Uvc3ZnK3htbCYjeGE7ICAgICYjeGE7ICAgICAmI3hhOyAgICAgIE1hdHBsb3RsaWIgdjMuNi4zLCBodHRwczovL21hdHBsb3RsaWIub3JnLyYjeGE7ICAgICAmI3hhOyAgICAmI3hhOyAgICYjeGE7ICAmI3hhOyA8L21ldGFkYXRhPiYjeGE7IDxkZWZzPiYjeGE7ICA8c3R5bGUgdHlwZT0idGV4dC9jc3MiPip7c3Ryb2tlLWxpbmVqb2luOiByb3VuZDsgc3Ryb2tlLWxpbmVjYXA6IGJ1dHR9PC9zdHlsZT4mI3hhOyA8L2RlZnM+JiN4YTsgPGcgaWQ9ImZpZ3VyZV8xIj4mI3hhOyAgPGcgaWQ9InBhdGNoXzEiPiYjeGE7ICAgPHBhdGggc3R5bGU9ImZpbGw6IG5vbmUiIGQ9Ik0gMCA5Ny41NiAmIzEwO0wgOTguMSA5Ny41NiAmIzEwO0wgOTguMSAwICYjMTA7TCAwIDAgJiMxMDtMIDAgOTcuNTYgJiMxMDt6Ii8+JiN4YTsgIDwvZz4mI3hhOyAgPGcgaWQ9ImF4ZXNfMSI+JiN4YTsgICA8ZyBpZD0idGV4dF8xIj4mI3hhOyAgICAmI3hhOyAgICA8ZyB0cmFuc2Zvcm09InRyYW5zbGF0ZSgyOS44NSA2My41OCkgc2NhbGUoMC40IC0wLjQpIiBzdHlsZT0iZmlsbDogIzMzMzMzMyI+JiN4YTsgICAgIDxkZWZzPiYjeGE7ICAgICAgPHBhdGggdHJhbnNmb3JtPSJzY2FsZSgwLjAxNTYyNSkiIGQ9Ik0gMjQ0IDY1MDkgJiMxMDtMIDU4MDMgNjUwOSAmIzEwO0wgNTgwMyA1NjU2ICYjMTA7TCAxNTY2IDU2NTYgJiMxMDtMIDQ1MzQgMjQ4OCAmIzEwO0wgMTQ2OSAtODg4ICYjMTA7TCA1OTE5IC04ODggJiMxMDtMIDU5MTkgLTE3MzggJiMxMDtMIDEwOSAtMTczOCAmIzEwO0wgMTA5IC0xMDc4ICYjMTA7TCAzMzE2IDI0NjMgJiMxMDtMIDI0NCA1NzI4ICYjMTA7TCAyNDQgNjUwOSAmIzEwO3oiIGlkPSJEZWphVnVTYW5zRGlzcGxheS0yMjExIi8+JiN4YTsgICAgIDwvZGVmcz4mI3hhOyAgICAgPHVzZSB0cmFuc2Zvcm09InRyYW5zbGF0ZSgwIDAuMjk2ODc1KSIgeGxpbms6aHJlZj0iI0RlamFWdVNhbnNEaXNwbGF5LTIyMTEiLz4mI3hhOyAgICA8L2c+JiN4YTsgICA8L2c+JiN4YTsgIDwvZz4mI3hhOyA8L2c+JiN4YTs8L3N2Zz4=;" vertex="1" parent="1">
          <mxGeometry x="44" y="-13" width="28" height="28" as="geometry" />
        </mxCell>
        <mxCell id="IQCu-P5Pp9QnxodTstl--37" value="" style="shape=image;verticalLabelPosition=bottom;labelBackgroundColor=default;verticalAlign=top;aspect=fixed;imageAspect=0;editableCssRules=.*;image=data:image/svg+xml,PHN2ZyB4bWxucz0iaHR0cDovL3d3dy53My5vcmcvMjAwMC9zdmciIHhtbG5zOnhsaW5rPSJodHRwOi8vd3d3LnczLm9yZy8xOTk5L3hsaW5rIiB2ZXJzaW9uPSIxLjEiIHZpZXdCb3g9IjAgMCA5OC4wOTk5OTg0NzQxMjExIDk3LjU1OTk5NzU1ODU5Mzc1IiBoZWlnaHQ9Ijk3LjU1OTk5NzU1ODU5Mzc1IiB3aWR0aD0iOTguMDk5OTk4NDc0MTIxMSI+JiN4YTsgPG1ldGFkYXRhPiYjeGE7ICAmI3hhOyAgICYjeGE7ICAgICYjeGE7ICAgIDIwMjUtMDMtMDFUMTQ6NTY6MzQuOTA4NDAyJiN4YTsgICAgaW1hZ2Uvc3ZnK3htbCYjeGE7ICAgICYjeGE7ICAgICAmI3hhOyAgICAgIE1hdHBsb3RsaWIgdjMuNi4zLCBodHRwczovL21hdHBsb3RsaWIub3JnLyYjeGE7ICAgICAmI3hhOyAgICAmI3hhOyAgICYjeGE7ICAmI3hhOyA8L21ldGFkYXRhPiYjeGE7IDxkZWZzPiYjeGE7ICA8c3R5bGUgdHlwZT0idGV4dC9jc3MiPip7c3Ryb2tlLWxpbmVqb2luOiByb3VuZDsgc3Ryb2tlLWxpbmVjYXA6IGJ1dHR9PC9zdHlsZT4mI3hhOyA8L2RlZnM+JiN4YTsgPGcgaWQ9ImZpZ3VyZV8xIj4mI3hhOyAgPGcgaWQ9InBhdGNoXzEiPiYjeGE7ICAgPHBhdGggc3R5bGU9ImZpbGw6IG5vbmUiIGQ9Ik0gMCA5Ny41NiAmIzEwO0wgOTguMSA5Ny41NiAmIzEwO0wgOTguMSAwICYjMTA7TCAwIDAgJiMxMDtMIDAgOTcuNTYgJiMxMDt6Ii8+JiN4YTsgIDwvZz4mI3hhOyAgPGcgaWQ9ImF4ZXNfMSI+JiN4YTsgICA8ZyBpZD0idGV4dF8xIj4mI3hhOyAgICAmI3hhOyAgICA8ZyB0cmFuc2Zvcm09InRyYW5zbGF0ZSgzNS4yNSA1OS44MTc1KSBzY2FsZSgwLjQgLTAuNCkiIHN0eWxlPSJmaWxsOiAjMzMzMzMzIj4mI3hhOyAgICAgPGRlZnM+JiN4YTsgICAgICA8cGF0aCB0cmFuc2Zvcm09InNjYWxlKDAuMDE1NjI1KSIgZD0iTSAyMTg4IDQwNDQgJiMxMDtMIDkwNiA1MjUgJiMxMDtMIDM0NzIgNTI1ICYjMTA7TCAyMTg4IDQwNDQgJiMxMDt6JiMxMDtNIDUwIDAgJiMxMDtMIDE4MzEgNDY2NiAmIzEwO0wgMjU0NyA0NjY2ICYjMTA7TCA0MzI1IDAgJiMxMDtMIDUwIDAgJiMxMDt6IiBpZD0iRGVqYVZ1U2Fucy0zOTQiLz4mI3hhOyAgICAgPC9kZWZzPiYjeGE7ICAgICA8dXNlIHRyYW5zZm9ybT0idHJhbnNsYXRlKDAgMC4wOTM3NSkiIHhsaW5rOmhyZWY9IiNEZWphVnVTYW5zLTM5NCIvPiYjeGE7ICAgIDwvZz4mI3hhOyAgIDwvZz4mI3hhOyAgPC9nPiYjeGE7IDwvZz4mI3hhOzwvc3ZnPg==;" vertex="1" parent="1">
          <mxGeometry x="-68.3" y="1.9999999999999996" width="43.6" height="43.6" as="geometry" />
        </mxCell>
        <mxCell id="IQCu-P5Pp9QnxodTstl--38" value="" style="shape=image;verticalLabelPosition=bottom;labelBackgroundColor=default;verticalAlign=top;aspect=fixed;imageAspect=0;editableCssRules=.*;image=data:image/svg+xml,PHN2ZyB4bWxucz0iaHR0cDovL3d3dy53My5vcmcvMjAwMC9zdmciIHhtbG5zOnhsaW5rPSJodHRwOi8vd3d3LnczLm9yZy8xOTk5L3hsaW5rIiB2ZXJzaW9uPSIxLjEiIHZpZXdCb3g9IjAgMCA5OC4wOTk5OTg0NzQxMjExIDU4Ljc1MTk5ODkwMTM2NzE5IiBoZWlnaHQ9IjU4Ljc1MTk5ODkwMTM2NzE5IiB3aWR0aD0iOTguMDk5OTk4NDc0MTIxMSI+JiN4YTsgPG1ldGFkYXRhPiYjeGE7ICAmI3hhOyAgICYjeGE7ICAgICYjeGE7ICAgIDIwMjUtMDMtMDFUMTU6MDc6MjcuMjk0OTYwJiN4YTsgICAgaW1hZ2Uvc3ZnK3htbCYjeGE7ICAgICYjeGE7ICAgICAmI3hhOyAgICAgIE1hdHBsb3RsaWIgdjMuNi4zLCBodHRwczovL21hdHBsb3RsaWIub3JnLyYjeGE7ICAgICAmI3hhOyAgICAmI3hhOyAgICYjeGE7ICAmI3hhOyA8L21ldGFkYXRhPiYjeGE7IDxkZWZzPiYjeGE7ICA8c3R5bGUgdHlwZT0idGV4dC9jc3MiPip7c3Ryb2tlLWxpbmVqb2luOiByb3VuZDsgc3Ryb2tlLWxpbmVjYXA6IGJ1dHR9PC9zdHlsZT4mI3hhOyA8L2RlZnM+JiN4YTsgPGcgaWQ9ImZpZ3VyZV8xIj4mI3hhOyAgPGcgaWQ9InBhdGNoXzEiPiYjeGE7ICAgPHBhdGggc3R5bGU9ImZpbGw6IG5vbmUiIGQ9Ik0gMCA1OC43NTIgJiMxMDtMIDk4LjEgNTguNzUyICYjMTA7TCA5OC4xIDAgJiMxMDtMIDAgMCAmIzEwO0wgMCA1OC43NTIgJiMxMDt6Ii8+JiN4YTsgIDwvZz4mI3hhOyAgPGcgaWQ9ImF4ZXNfMSI+JiN4YTsgICA8ZyBpZD0idGV4dF8xIj4mI3hhOyAgICAmI3hhOyAgICA8ZyB0cmFuc2Zvcm09InRyYW5zbGF0ZSgyOC41NSAzNC44NzYpIHNjYWxlKDAuMiAtMC4yKSIgc3R5bGU9ImZpbGw6ICMzMzMzMzMiPiYjeGE7ICAgICA8ZGVmcz4mI3hhOyAgICAgIDxwYXRoIHRyYW5zZm9ybT0ic2NhbGUoMC4wMTU2MjUpIiBkPSJNIDI2NjkgNTI1ICYjMTA7USAyNDM4IDIyMiAyMTIzIDY1ICYjMTA7USAxODA5IC05MSAxNDI4IC05MSAmIzEwO1EgODk3IC05MSA1OTUgMjY3ICYjMTA7USAyOTQgNjI1IDI5NCAxMjUzICYjMTA7USAyOTQgMTc1OSA0ODAgMjIzMSAmIzEwO1EgNjY2IDI3MDMgMTAxMyAzMDc4ICYjMTA7USAxMjM4IDMzMjIgMTUzMCAzNDUzICYjMTA7USAxODIyIDM1ODQgMjE0NCAzNTg0ICYjMTA7USAyNTMxIDM1ODQgMjc4MSAzNDMxICYjMTA7USAzMDMxIDMyNzggMzE0NCAyOTY5ICYjMTA7TCAzMjQ0IDM0OTQgJiMxMDtMIDM4MjIgMzQ5NCAmIzEwO0wgMjg4OCAtMTMxOSAmIzEwO0wgMjMwOSAtMTMxOSAmIzEwO0wgMjY2OSA1MjUgJiMxMDt6JiMxMDtNIDg5MSAxMzM4ICYjMTA7USA4OTEgODc1IDEwODQgNjMzICYjMTA7USAxMjc4IDM5MSAxNjQ0IDM5MSAmIzEwO1EgMjE4OCAzOTEgMjU3MiA5MTEgJiMxMDtRIDI5NTYgMTQzMSAyOTU2IDIxNzUgJiMxMDtRIDI5NTYgMjYyNSAyNzU3IDI4NjQgJiMxMDtRIDI1NTkgMzEwMyAyMTg4IDMxMDMgJiMxMDtRIDE5MTYgMzEwMyAxNjg0IDI5NzYgJiMxMDtRIDE0NTMgMjg1MCAxMjgxIDI2MDYgJiMxMDtRIDExMDAgMjM1MCA5OTUgMjAwNiAmIzEwO1EgODkxIDE2NjMgODkxIDEzMzggJiMxMDt6IiBpZD0iRGVqYVZ1U2Fucy1PYmxpcXVlLTcxIi8+JiN4YTsgICAgICA8cGF0aCB0cmFuc2Zvcm09InNjYWxlKDAuMDE1NjI1KSIgZD0iTSAxOTg0IDQ4NTYgJiMxMDtRIDE1NjYgNDEzOCAxMzYyIDM0MzQgJiMxMDtRIDExNTkgMjczMSAxMTU5IDIwMDkgJiMxMDtRIDExNTkgMTI4OCAxMzY0IDU4MCAmIzEwO1EgMTU2OSAtMTI4IDE5ODQgLTg0NCAmIzEwO0wgMTQ4NCAtODQ0ICYjMTA7USAxMDE2IC0xMDkgNzgzIDYwMCAmIzEwO1EgNTUwIDEzMDkgNTUwIDIwMDkgJiMxMDtRIDU1MCAyNzA2IDc4MSAzNDEyICYjMTA7USAxMDEzIDQxMTkgMTQ4NCA0ODU2ICYjMTA7TCAxOTg0IDQ4NTYgJiMxMDt6IiBpZD0iRGVqYVZ1U2Fucy0yOCIvPiYjeGE7ICAgICAgPHBhdGggdHJhbnNmb3JtPSJzY2FsZSgwLjAxNTYyNSkiIGQ9Ik0gMzU2NiAyMTEzICYjMTA7TCAzMTU2IDAgJiMxMDtMIDI1NzggMCAmIzEwO0wgMjk4OCAyMDkxICYjMTA7USAzMDE2IDIyMzggMzAzMSAyMzUwICYjMTA7USAzMDQ3IDI0NjMgMzA0NyAyNTI4ICYjMTA7USAzMDQ3IDI3OTEgMjg4MSAyOTM3ICYjMTA7USAyNzE2IDMwODQgMjQxOSAzMDg0ICYjMTA7USAxOTU2IDMwODQgMTYyMiAyNzc2ICYjMTA7USAxMjg4IDI0NjkgMTE4NCAxOTQxICYjMTA7TCA4MDAgMCAmIzEwO0wgMjI1IDAgJiMxMDtMIDkwMyAzNTAwICYjMTA7TCAxNDc4IDM1MDAgJiMxMDtMIDEzNjMgMjk1MCAmIzEwO1EgMTYwMyAzMjUzIDE5NDAgMzQxOCAmIzEwO1EgMjI3OCAzNTg0IDI2NTAgMzU4NCAmIzEwO1EgMzExMyAzNTg0IDMzNjcgMzMzNCAmIzEwO1EgMzYyMiAzMDg0IDM2MjIgMjYzMSAmIzEwO1EgMzYyMiAyNTE5IDM2MDggMjM5MSAmIzEwO1EgMzU5NCAyMjYzIDM1NjYgMjExMyAmIzEwO3oiIGlkPSJEZWphVnVTYW5zLU9ibGlxdWUtNmUiLz4mI3hhOyAgICAgIDxwYXRoIHRyYW5zZm9ybT0ic2NhbGUoMC4wMTU2MjUpIiBkPSJNIDUxMyA0ODU2ICYjMTA7TCAxMDEzIDQ4NTYgJiMxMDtRIDE0ODEgNDExOSAxNzE0IDM0MTIgJiMxMDtRIDE5NDcgMjcwNiAxOTQ3IDIwMDkgJiMxMDtRIDE5NDcgMTMwOSAxNzE0IDYwMCAmIzEwO1EgMTQ4MSAtMTA5IDEwMTMgLTg0NCAmIzEwO0wgNTEzIC04NDQgJiMxMDtRIDkyOCAtMTI4IDExMzMgNTgwICYjMTA7USAxMzM4IDEyODggMTMzOCAyMDA5ICYjMTA7USAxMzM4IDI3MzEgMTEzMyAzNDM0ICYjMTA7USA5MjggNDEzOCA1MTMgNDg1NiAmIzEwO3oiIGlkPSJEZWphVnVTYW5zLTI5Ii8+JiN4YTsgICAgIDwvZGVmcz4mI3hhOyAgICAgPHVzZSB0cmFuc2Zvcm09InRyYW5zbGF0ZSgwIDAuMTI1KSIgeGxpbms6aHJlZj0iI0RlamFWdVNhbnMtT2JsaXF1ZS03MSIvPiYjeGE7ICAgICA8dXNlIHRyYW5zZm9ybT0idHJhbnNsYXRlKDYzLjQ3NjU2MiAwLjEyNSkiIHhsaW5rOmhyZWY9IiNEZWphVnVTYW5zLTI4Ii8+JiN4YTsgICAgIDx1c2UgdHJhbnNmb3JtPSJ0cmFuc2xhdGUoMTAyLjQ5MDIzNCAwLjEyNSkiIHhsaW5rOmhyZWY9IiNEZWphVnVTYW5zLU9ibGlxdWUtNmUiLz4mI3hhOyAgICAgPHVzZSB0cmFuc2Zvcm09InRyYW5zbGF0ZSgxNjUuODY5MTQxIDAuMTI1KSIgeGxpbms6aHJlZj0iI0RlamFWdVNhbnMtMjkiLz4mI3hhOyAgICA8L2c+JiN4YTsgICA8L2c+JiN4YTsgIDwvZz4mI3hhOyA8L2c+JiN4YTs8L3N2Zz4=;" vertex="1" parent="1">
          <mxGeometry x="90" y="17" width="70.59" height="42.51" as="geometry" />
        </mxCell>
        <mxCell id="IQCu-P5Pp9QnxodTstl--39" value="" style="shape=image;verticalLabelPosition=bottom;labelBackgroundColor=default;verticalAlign=top;aspect=fixed;imageAspect=0;editableCssRules=.*;image=data:image/svg+xml,PHN2ZyB4bWxucz0iaHR0cDovL3d3dy53My5vcmcvMjAwMC9zdmciIHhtbG5zOnhsaW5rPSJodHRwOi8vd3d3LnczLm9yZy8xOTk5L3hsaW5rIiB2ZXJzaW9uPSIxLjEiIHZpZXdCb3g9IjAgMCA5OC4wOTk5OTg0NzQxMjExIDU4Ljc1MTk5ODkwMTM2NzE5IiBoZWlnaHQ9IjU4Ljc1MTk5ODkwMTM2NzE5IiB3aWR0aD0iOTguMDk5OTk4NDc0MTIxMSI+JiN4YTsgPG1ldGFkYXRhPiYjeGE7ICAmI3hhOyAgICYjeGE7ICAgICYjeGE7ICAgIDIwMjUtMDMtMDFUMTU6MDc6MjcuMTMwNzYwJiN4YTsgICAgaW1hZ2Uvc3ZnK3htbCYjeGE7ICAgICYjeGE7ICAgICAmI3hhOyAgICAgIE1hdHBsb3RsaWIgdjMuNi4zLCBodHRwczovL21hdHBsb3RsaWIub3JnLyYjeGE7ICAgICAmI3hhOyAgICAmI3hhOyAgICYjeGE7ICAmI3hhOyA8L21ldGFkYXRhPiYjeGE7IDxkZWZzPiYjeGE7ICA8c3R5bGUgdHlwZT0idGV4dC9jc3MiPip7c3Ryb2tlLWxpbmVqb2luOiByb3VuZDsgc3Ryb2tlLWxpbmVjYXA6IGJ1dHR9PC9zdHlsZT4mI3hhOyA8L2RlZnM+JiN4YTsgPGcgaWQ9ImZpZ3VyZV8xIj4mI3hhOyAgPGcgaWQ9InBhdGNoXzEiPiYjeGE7ICAgPHBhdGggc3R5bGU9ImZpbGw6IG5vbmUiIGQ9Ik0gMCA1OC43NTIgJiMxMDtMIDk4LjEgNTguNzUyICYjMTA7TCA5OC4xIDAgJiMxMDtMIDAgMCAmIzEwO0wgMCA1OC43NTIgJiMxMDt6Ii8+JiN4YTsgIDwvZz4mI3hhOyAgPGcgaWQ9ImF4ZXNfMSI+JiN4YTsgICA8ZyBpZD0idGV4dF8xIj4mI3hhOyAgICAmI3hhOyAgICA8ZyB0cmFuc2Zvcm09InRyYW5zbGF0ZSgyOC45NSAzNC44OTQ3NSkgc2NhbGUoMC4yIC0wLjIpIiBzdHlsZT0iZmlsbDogIzMzMzMzMyI+JiN4YTsgICAgIDxkZWZzPiYjeGE7ICAgICAgPHBhdGggdHJhbnNmb3JtPSJzY2FsZSgwLjAxNTYyNSkiIGQ9Ik0gMzg0MSAzNTAwICYjMTA7TCAyMjM0IDE3ODQgJiMxMDtMIDMyMTkgMCAmIzEwO0wgMjU1OSAwICYjMTA7TCAxODE5IDEzODggJiMxMDtMIDUzMSAwICYjMTA7TCAtMTY2IDAgJiMxMDtMIDE1NTYgMTg0NCAmIzEwO0wgNjQxIDM1MDAgJiMxMDtMIDEzMDAgMzUwMCAmIzEwO0wgMTk3MiAyMjM0ICYjMTA7TCAzMTQ0IDM1MDAgJiMxMDtMIDM4NDEgMzUwMCAmIzEwO3oiIGlkPSJEZWphVnVTYW5zLU9ibGlxdWUtNzgiLz4mI3hhOyAgICAgIDxwYXRoIHRyYW5zZm9ybT0ic2NhbGUoMC4wMTU2MjUpIiBkPSJNIDE5ODQgNDg1NiAmIzEwO1EgMTU2NiA0MTM4IDEzNjIgMzQzNCAmIzEwO1EgMTE1OSAyNzMxIDExNTkgMjAwOSAmIzEwO1EgMTE1OSAxMjg4IDEzNjQgNTgwICYjMTA7USAxNTY5IC0xMjggMTk4NCAtODQ0ICYjMTA7TCAxNDg0IC04NDQgJiMxMDtRIDEwMTYgLTEwOSA3ODMgNjAwICYjMTA7USA1NTAgMTMwOSA1NTAgMjAwOSAmIzEwO1EgNTUwIDI3MDYgNzgxIDM0MTIgJiMxMDtRIDEwMTMgNDExOSAxNDg0IDQ4NTYgJiMxMDtMIDE5ODQgNDg1NiAmIzEwO3oiIGlkPSJEZWphVnVTYW5zLTI4Ii8+JiN4YTsgICAgICA8cGF0aCB0cmFuc2Zvcm09InNjYWxlKDAuMDE1NjI1KSIgZD0iTSAzNTY2IDIxMTMgJiMxMDtMIDMxNTYgMCAmIzEwO0wgMjU3OCAwICYjMTA7TCAyOTg4IDIwOTEgJiMxMDtRIDMwMTYgMjIzOCAzMDMxIDIzNTAgJiMxMDtRIDMwNDcgMjQ2MyAzMDQ3IDI1MjggJiMxMDtRIDMwNDcgMjc5MSAyODgxIDI5MzcgJiMxMDtRIDI3MTYgMzA4NCAyNDE5IDMwODQgJiMxMDtRIDE5NTYgMzA4NCAxNjIyIDI3NzYgJiMxMDtRIDEyODggMjQ2OSAxMTg0IDE5NDEgJiMxMDtMIDgwMCAwICYjMTA7TCAyMjUgMCAmIzEwO0wgOTAzIDM1MDAgJiMxMDtMIDE0NzggMzUwMCAmIzEwO0wgMTM2MyAyOTUwICYjMTA7USAxNjAzIDMyNTMgMTk0MCAzNDE4ICYjMTA7USAyMjc4IDM1ODQgMjY1MCAzNTg0ICYjMTA7USAzMTEzIDM1ODQgMzM2NyAzMzM0ICYjMTA7USAzNjIyIDMwODQgMzYyMiAyNjMxICYjMTA7USAzNjIyIDI1MTkgMzYwOCAyMzkxICYjMTA7USAzNTk0IDIyNjMgMzU2NiAyMTEzICYjMTA7eiIgaWQ9IkRlamFWdVNhbnMtT2JsaXF1ZS02ZSIvPiYjeGE7ICAgICAgPHBhdGggdHJhbnNmb3JtPSJzY2FsZSgwLjAxNTYyNSkiIGQ9Ik0gNTEzIDQ4NTYgJiMxMDtMIDEwMTMgNDg1NiAmIzEwO1EgMTQ4MSA0MTE5IDE3MTQgMzQxMiAmIzEwO1EgMTk0NyAyNzA2IDE5NDcgMjAwOSAmIzEwO1EgMTk0NyAxMzA5IDE3MTQgNjAwICYjMTA7USAxNDgxIC0xMDkgMTAxMyAtODQ0ICYjMTA7TCA1MTMgLTg0NCAmIzEwO1EgOTI4IC0xMjggMTEzMyA1ODAgJiMxMDtRIDEzMzggMTI4OCAxMzM4IDIwMDkgJiMxMDtRIDEzMzggMjczMSAxMTMzIDM0MzQgJiMxMDtRIDkyOCA0MTM4IDUxMyA0ODU2ICYjMTA7eiIgaWQ9IkRlamFWdVNhbnMtMjkiLz4mI3hhOyAgICAgPC9kZWZzPiYjeGE7ICAgICA8dXNlIHRyYW5zZm9ybT0idHJhbnNsYXRlKDAgMC4xMjUpIiB4bGluazpocmVmPSIjRGVqYVZ1U2Fucy1PYmxpcXVlLTc4Ii8+JiN4YTsgICAgIDx1c2UgdHJhbnNmb3JtPSJ0cmFuc2xhdGUoNTkuMTc5Njg4IDAuMTI1KSIgeGxpbms6aHJlZj0iI0RlamFWdVNhbnMtMjgiLz4mI3hhOyAgICAgPHVzZSB0cmFuc2Zvcm09InRyYW5zbGF0ZSg5OC4xOTMzNTkgMC4xMjUpIiB4bGluazpocmVmPSIjRGVqYVZ1U2Fucy1PYmxpcXVlLTZlIi8+JiN4YTsgICAgIDx1c2UgdHJhbnNmb3JtPSJ0cmFuc2xhdGUoMTYxLjU3MjI2NiAwLjEyNSkiIHhsaW5rOmhyZWY9IiNEZWphVnVTYW5zLTI5Ii8+JiN4YTsgICAgPC9nPiYjeGE7ICAgPC9nPiYjeGE7ICA8L2c+JiN4YTsgPC9nPiYjeGE7PC9zdmc+;" vertex="1" parent="1">
          <mxGeometry x="-140" y="13" width="82.22" height="49.5" as="geometry" />
        </mxCell>
        <mxCell id="IQCu-P5Pp9QnxodTstl--40" value="" style="shape=image;verticalLabelPosition=bottom;labelBackgroundColor=default;verticalAlign=top;aspect=fixed;imageAspect=0;editableCssRules=.*;image=data:image/svg+xml,PHN2ZyB4bWxucz0iaHR0cDovL3d3dy53My5vcmcvMjAwMC9zdmciIHhtbG5zOnhsaW5rPSJodHRwOi8vd3d3LnczLm9yZy8xOTk5L3hsaW5rIiB2ZXJzaW9uPSIxLjEiIHZpZXdCb3g9IjAgMCA5OC4wOTk5OTg0NzQxMjExIDU4Ljc1MTk5ODkwMTM2NzE5IiBoZWlnaHQ9IjU4Ljc1MTk5ODkwMTM2NzE5IiB3aWR0aD0iOTguMDk5OTk4NDc0MTIxMSI+JiN4YTsgPG1ldGFkYXRhPiYjeGE7ICAmI3hhOyAgICYjeGE7ICAgICYjeGE7ICAgIDIwMjUtMDMtMDFUMTU6MDc6MjcuNDE2MTU3JiN4YTsgICAgaW1hZ2Uvc3ZnK3htbCYjeGE7ICAgICYjeGE7ICAgICAmI3hhOyAgICAgIE1hdHBsb3RsaWIgdjMuNi4zLCBodHRwczovL21hdHBsb3RsaWIub3JnLyYjeGE7ICAgICAmI3hhOyAgICAmI3hhOyAgICYjeGE7ICAmI3hhOyA8L21ldGFkYXRhPiYjeGE7IDxkZWZzPiYjeGE7ICA8c3R5bGUgdHlwZT0idGV4dC9jc3MiPip7c3Ryb2tlLWxpbmVqb2luOiByb3VuZDsgc3Ryb2tlLWxpbmVjYXA6IGJ1dHR9PC9zdHlsZT4mI3hhOyA8L2RlZnM+JiN4YTsgPGcgaWQ9ImZpZ3VyZV8xIj4mI3hhOyAgPGcgaWQ9InBhdGNoXzEiPiYjeGE7ICAgPHBhdGggc3R5bGU9ImZpbGw6IG5vbmUiIGQ9Ik0gMCA1OC43NTIgJiMxMDtMIDk4LjEgNTguNzUyICYjMTA7TCA5OC4xIDAgJiMxMDtMIDAgMCAmIzEwO0wgMCA1OC43NTIgJiMxMDt6Ii8+JiN4YTsgIDwvZz4mI3hhOyAgPGcgaWQ9ImF4ZXNfMSI+JiN4YTsgICA8ZyBpZD0idGV4dF8xIj4mI3hhOyAgICAmI3hhOyAgICA8ZyB0cmFuc2Zvcm09InRyYW5zbGF0ZSgyOC45NSAzNC44NzYpIHNjYWxlKDAuMiAtMC4yKSIgc3R5bGU9ImZpbGw6ICMzMzMzMzMiPiYjeGE7ICAgICA8ZGVmcz4mI3hhOyAgICAgIDxwYXRoIHRyYW5zZm9ybT0ic2NhbGUoMC4wMTU2MjUpIiBkPSJNIDE1ODggLTMyNSAmIzEwO1EgMTE4OCAtOTk3IDkzNiAtMTE2NCAmIzEwO1EgNjg0IC0xMzMxIDI5NCAtMTMzMSAmIzEwO0wgLTE1OSAtMTMzMSAmIzEwO0wgLTYzIC04NTAgJiMxMDtMIDI2OSAtODUwICYjMTA7USA1MDkgLTg1MCA2NzggLTcxOSAmIzEwO1EgODQ3IC01ODggMTA1NiAtMjA2ICYjMTA7TCAxMjM0IDEyOCAmIzEwO0wgNDU5IDM1MDAgJiMxMDtMIDEwNjkgMzUwMCAmIzEwO0wgMTY1MCA4MTkgJiMxMDtMIDMyNTYgMzUwMCAmIzEwO0wgMzg1OSAzNTAwICYjMTA7TCAxNTg4IC0zMjUgJiMxMDt6IiBpZD0iRGVqYVZ1U2Fucy1PYmxpcXVlLTc5Ii8+JiN4YTsgICAgICA8cGF0aCB0cmFuc2Zvcm09InNjYWxlKDAuMDE1NjI1KSIgZD0iTSAxOTg0IDQ4NTYgJiMxMDtRIDE1NjYgNDEzOCAxMzYyIDM0MzQgJiMxMDtRIDExNTkgMjczMSAxMTU5IDIwMDkgJiMxMDtRIDExNTkgMTI4OCAxMzY0IDU4MCAmIzEwO1EgMTU2OSAtMTI4IDE5ODQgLTg0NCAmIzEwO0wgMTQ4NCAtODQ0ICYjMTA7USAxMDE2IC0xMDkgNzgzIDYwMCAmIzEwO1EgNTUwIDEzMDkgNTUwIDIwMDkgJiMxMDtRIDU1MCAyNzA2IDc4MSAzNDEyICYjMTA7USAxMDEzIDQxMTkgMTQ4NCA0ODU2ICYjMTA7TCAxOTg0IDQ4NTYgJiMxMDt6IiBpZD0iRGVqYVZ1U2Fucy0yOCIvPiYjeGE7ICAgICAgPHBhdGggdHJhbnNmb3JtPSJzY2FsZSgwLjAxNTYyNSkiIGQ9Ik0gMzU2NiAyMTEzICYjMTA7TCAzMTU2IDAgJiMxMDtMIDI1NzggMCAmIzEwO0wgMjk4OCAyMDkxICYjMTA7USAzMDE2IDIyMzggMzAzMSAyMzUwICYjMTA7USAzMDQ3IDI0NjMgMzA0NyAyNTI4ICYjMTA7USAzMDQ3IDI3OTEgMjg4MSAyOTM3ICYjMTA7USAyNzE2IDMwODQgMjQxOSAzMDg0ICYjMTA7USAxOTU2IDMwODQgMTYyMiAyNzc2ICYjMTA7USAxMjg4IDI0NjkgMTE4NCAxOTQxICYjMTA7TCA4MDAgMCAmIzEwO0wgMjI1IDAgJiMxMDtMIDkwMyAzNTAwICYjMTA7TCAxNDc4IDM1MDAgJiMxMDtMIDEzNjMgMjk1MCAmIzEwO1EgMTYwMyAzMjUzIDE5NDAgMzQxOCAmIzEwO1EgMjI3OCAzNTg0IDI2NTAgMzU4NCAmIzEwO1EgMzExMyAzNTg0IDMzNjcgMzMzNCAmIzEwO1EgMzYyMiAzMDg0IDM2MjIgMjYzMSAmIzEwO1EgMzYyMiAyNTE5IDM2MDggMjM5MSAmIzEwO1EgMzU5NCAyMjYzIDM1NjYgMjExMyAmIzEwO3oiIGlkPSJEZWphVnVTYW5zLU9ibGlxdWUtNmUiLz4mI3hhOyAgICAgIDxwYXRoIHRyYW5zZm9ybT0ic2NhbGUoMC4wMTU2MjUpIiBkPSJNIDUxMyA0ODU2ICYjMTA7TCAxMDEzIDQ4NTYgJiMxMDtRIDE0ODEgNDExOSAxNzE0IDM0MTIgJiMxMDtRIDE5NDcgMjcwNiAxOTQ3IDIwMDkgJiMxMDtRIDE5NDcgMTMwOSAxNzE0IDYwMCAmIzEwO1EgMTQ4MSAtMTA5IDEwMTMgLTg0NCAmIzEwO0wgNTEzIC04NDQgJiMxMDtRIDkyOCAtMTI4IDExMzMgNTgwICYjMTA7USAxMzM4IDEyODggMTMzOCAyMDA5ICYjMTA7USAxMzM4IDI3MzEgMTEzMyAzNDM0ICYjMTA7USA5MjggNDEzOCA1MTMgNDg1NiAmIzEwO3oiIGlkPSJEZWphVnVTYW5zLTI5Ii8+JiN4YTsgICAgIDwvZGVmcz4mI3hhOyAgICAgPHVzZSB0cmFuc2Zvcm09InRyYW5zbGF0ZSgwIDAuMTI1KSIgeGxpbms6aHJlZj0iI0RlamFWdVNhbnMtT2JsaXF1ZS03OSIvPiYjeGE7ICAgICA8dXNlIHRyYW5zZm9ybT0idHJhbnNsYXRlKDU5LjE3OTY4OCAwLjEyNSkiIHhsaW5rOmhyZWY9IiNEZWphVnVTYW5zLTI4Ii8+JiN4YTsgICAgIDx1c2UgdHJhbnNmb3JtPSJ0cmFuc2xhdGUoOTguMTkzMzU5IDAuMTI1KSIgeGxpbms6aHJlZj0iI0RlamFWdVNhbnMtT2JsaXF1ZS02ZSIvPiYjeGE7ICAgICA8dXNlIHRyYW5zZm9ybT0idHJhbnNsYXRlKDE2MS41NzIyNjYgMC4xMjUpIiB4bGluazpocmVmPSIjRGVqYVZ1U2Fucy0yOSIvPiYjeGE7ICAgIDwvZz4mI3hhOyAgIDwvZz4mI3hhOyAgPC9nPiYjeGE7IDwvZz4mI3hhOzwvc3ZnPg==;" vertex="1" parent="1">
          <mxGeometry x="234" y="17.83" width="70.9" height="42.68" as="geometry" />
        </mxCell>
      </root>
    </mxGraphModel>
  </diagram>
</mxfile>
